<svg width="704" height="212" viewBox="0 0 704 212" fill="none" xmlns="http://www.w3.org/2000/svg">
<path fill-rule="evenodd" clip-rule="evenodd" d="M688.987 132.388C688.987 126.285 687.186 121.583 683.585 118.281C680.083 114.88 674.781 113.179 667.677 113.179C662.975 113.179 658.373 113.979 653.871 115.58C649.369 117.081 645.567 119.132 642.466 121.733L636.463 110.928C640.565 107.626 645.467 105.125 651.17 103.424C656.972 101.623 663.025 100.723 669.328 100.723C680.233 100.723 688.637 103.374 694.54 108.677C700.443 113.979 703.394 122.083 703.394 132.988V181.01H689.738V170.577C687.798 173.47 685.146 175.897 681.784 177.859C676.982 180.56 670.929 181.911 663.626 181.911C657.723 181.911 652.52 180.91 648.018 178.909C643.616 176.908 640.215 174.157 637.814 170.655C635.412 167.054 634.212 163.002 634.212 158.5C634.212 154.198 635.212 150.296 637.213 146.794C639.314 143.293 642.666 140.491 647.268 138.391C651.97 136.29 658.273 135.239 666.177 135.239H688.987V132.388ZM652.22 149.196C654.721 146.794 659.574 145.594 666.777 145.594H688.987V156.699C687.187 161.301 684.235 164.803 680.133 167.204C676.131 169.605 671.429 170.806 666.027 170.806C660.524 170.806 656.222 169.655 653.121 167.354C650.019 164.953 648.469 161.801 648.469 157.9C648.469 154.498 649.719 151.597 652.22 149.196Z" fill="#15AAB8"/>
<path fill-rule="evenodd" clip-rule="evenodd" d="M573.068 211.024C565.765 211.024 558.661 209.974 551.758 207.873C544.955 205.872 539.402 202.97 535.1 199.169L542.004 188.064C545.705 191.265 550.257 193.766 555.66 195.567C561.062 197.468 566.715 198.418 572.618 198.418C582.022 198.418 588.925 196.217 593.327 191.815C597.729 187.413 599.93 180.71 599.93 171.706V165.379C597.14 168.771 593.788 171.481 589.876 173.507C584.273 176.308 578.07 177.709 571.267 177.709C563.564 177.709 556.66 176.108 550.558 172.907C544.555 169.605 539.753 165.053 536.151 159.25C532.649 153.447 530.898 146.744 530.898 139.141C530.898 131.437 532.649 124.734 536.151 119.032C539.753 113.229 544.555 108.727 550.558 105.525C556.66 102.324 563.564 100.723 571.267 100.723C578.07 100.723 584.273 102.124 589.876 104.925C594.146 106.984 597.747 109.914 600.681 113.716V101.473H614.337V170.205C614.337 184.212 610.836 194.517 603.832 201.12C596.829 207.723 586.574 211.024 573.068 211.024ZM587.024 161.801C582.923 164.002 578.22 165.103 572.918 165.103C567.615 165.103 562.863 164.002 558.661 161.801C554.559 159.6 551.308 156.549 548.907 152.647C546.606 148.745 545.455 144.243 545.455 139.141C545.455 134.038 546.606 129.536 548.907 125.635C551.308 121.733 554.559 118.731 558.661 116.63C562.863 114.429 567.615 113.329 572.918 113.329C578.22 113.329 582.923 114.429 587.024 116.63C591.126 118.731 594.328 121.733 596.629 125.635C599.03 129.536 600.231 134.038 600.231 139.141C600.231 144.243 599.03 148.745 596.629 152.647C594.328 156.549 591.126 159.6 587.024 161.801Z" fill="#15AAB8"/>
<path fill-rule="evenodd" clip-rule="evenodd" d="M483.282 181.911C474.778 181.911 467.274 180.16 460.771 176.658C454.368 173.157 449.366 168.354 445.764 162.252C442.263 156.149 440.512 149.145 440.512 141.242C440.512 133.338 442.213 126.335 445.614 120.232C449.116 114.129 453.868 109.377 459.871 105.975C465.974 102.474 472.827 100.723 480.43 100.723C488.134 100.723 494.937 102.424 500.84 105.825C506.742 109.227 511.345 114.029 514.646 120.232C518.048 126.335 519.748 133.488 519.748 141.692C519.748 143.119 519.65 144.632 519.448 146.044H454.865C455.329 149.745 456.448 153.147 458.22 156.249C460.721 160.351 464.173 163.552 468.575 165.853C472.977 168.154 478.029 169.305 483.732 169.305C488.434 169.305 492.686 168.504 496.488 166.904C500.39 165.303 503.791 162.902 506.692 159.7L514.646 169.005C511.044 173.207 506.542 176.408 501.14 178.609C495.837 180.81 489.885 181.911 483.282 181.911ZM493.786 116.33C497.688 118.531 500.74 121.633 502.941 125.635C504.61 128.67 505.617 132.021 505.963 135.689H454.837C455.258 132.057 456.286 128.755 457.92 125.785C460.121 121.683 463.172 118.531 467.074 116.33C470.976 114.029 475.428 112.879 480.43 112.879C485.533 112.879 489.985 114.029 493.786 116.33Z" fill="#15AAB8"/>
<path d="M389.574 101.473V181.01H403.981V141.392C403.981 132.688 406.232 126.035 410.734 121.433C415.236 116.831 421.339 114.529 429.043 114.529C429.043 114.529 430.5 114.512 432.344 114.68V100.723C424.741 100.723 418.338 102.174 413.135 105.075C408.879 107.448 405.628 110.692 403.381 114.806V101.473H389.574Z" fill="#15AAB8"/>
<path d="M356.249 181.908C348.246 181.908 342.043 179.757 337.641 175.455C333.239 171.153 331.038 165 331.038 156.997V113.326H317.531V101.471H331.038V84.0629H345.444V101.471H368.255V113.326H345.444V156.396C345.444 160.698 346.495 164 348.596 166.301C350.797 168.602 353.898 169.753 357.9 169.753C362.402 169.753 366.154 168.502 369.155 166.001L373.657 176.356C371.456 178.257 368.805 179.657 365.704 180.558C362.702 181.458 359.551 181.908 356.249 181.908Z" fill="#15AAB8"/>
<path d="M270.759 100.723C277.262 100.723 282.964 101.974 287.867 104.475C292.869 106.976 296.771 110.778 299.572 115.88C302.373 120.982 303.774 127.435 303.774 135.239V181.01H289.367V136.89C289.367 129.186 287.467 123.384 283.665 119.482C279.963 115.58 274.711 113.629 267.907 113.629C262.805 113.629 258.353 114.629 254.551 116.63C250.749 118.631 247.798 121.583 245.697 125.485C243.696 129.386 242.696 134.239 242.696 140.041V181.01H228.289V101.473H242.095V113.492C244.567 110.046 247.819 107.24 251.85 105.075C257.253 102.174 263.555 100.723 270.759 100.723Z" fill="#15AAB8"/>
<path d="M82.4152 82.4234L90.3969 77.9738L100.235 105.135L110.073 132.389L92.2531 109.585L74.4336 86.8731L82.4152 82.4234Z" fill="#22366A"/>
<path d="M13.6431 72.4117C13.7359 72.0409 13.7359 71.7628 13.8287 71.4847L22.8312 72.8752C22.8312 73.1533 22.7384 73.4314 22.7384 73.7095L13.6431 72.4117Z" fill="#22366A"/>
<path d="M14.664 66.6642C14.7568 66.3861 14.8496 66.0153 14.8496 65.7372L23.7594 67.8693C23.6666 68.1474 23.6666 68.4255 23.5738 68.7036L14.664 66.6642Z" fill="#22366A"/>
<path d="M24.9659 63.7905L16.2417 61.0095C16.3346 60.7314 16.4274 60.3606 16.5202 60.0825L25.1515 62.9562C25.1515 63.2343 25.0587 63.5124 24.9659 63.7905Z" fill="#22366A"/>
<path d="M18.2836 55.4474C18.3764 55.1693 18.5621 54.8912 18.6549 54.5204L27.0078 58.1357C26.9149 58.4138 26.8221 58.6919 26.6365 58.8773L18.2836 55.4474Z" fill="#22366A"/>
<path d="M20.7894 50.1634C20.975 49.8853 21.0678 49.6072 21.2535 49.3291L29.3279 53.686C29.2351 53.9641 29.0495 54.1496 28.9567 54.4277L20.7894 50.1634Z" fill="#22366A"/>
<path d="M23.6666 45.0649C23.8522 44.7868 24.0378 44.5087 24.2234 44.2306L31.9266 49.2364C31.741 49.5145 31.6482 49.6999 31.4626 49.978L23.6666 45.0649Z" fill="#22366A"/>
<path d="M27.0077 40.2444C27.1933 39.9663 27.379 39.6882 27.5646 39.5028L34.8037 45.1576C34.6181 45.343 34.4325 45.6211 34.2469 45.8065L27.0077 40.2444Z" fill="#22366A"/>
<path d="M30.7201 35.7021C30.9057 35.424 31.1842 35.2386 31.3698 34.9605L38.0521 41.1715C37.8665 41.3569 37.6809 41.5423 37.4953 41.8204L30.7201 35.7021Z" fill="#22366A"/>
<path d="M34.8038 31.5305C35.0822 31.3451 35.2678 31.067 35.5462 30.8816L41.7645 37.6488C41.5789 37.8342 41.3932 38.0196 41.1148 38.205L34.8038 31.5305Z" fill="#22366A"/>
<path d="M39.2586 27.7298C39.5371 27.5444 39.8155 27.359 40.0011 27.1736L45.5697 34.4042C45.3841 34.5896 45.1056 34.775 44.92 34.9604L39.2586 27.7298Z" fill="#22366A"/>
<path d="M43.9919 24.2071C44.2703 24.0217 44.5487 23.8363 44.8271 23.6509L49.7461 31.3451C49.4677 31.5305 49.282 31.6232 49.0036 31.8086L43.9919 24.2071Z" fill="#22366A"/>
<path d="M49.0037 21.2407C49.2821 21.0553 49.5606 20.9626 49.839 20.7772L54.1082 28.8422C53.8298 28.9349 53.6442 29.1203 53.3658 29.213L49.0037 21.2407Z" fill="#22366A"/>
<path d="M54.2938 18.645C54.5722 18.5523 54.8507 18.3669 55.2219 18.2742L58.8415 26.71C58.563 26.8027 58.2846 26.8954 58.099 27.0808L54.2938 18.645Z" fill="#22366A"/>
<path d="M59.6767 16.4202C59.9552 16.3275 60.3264 16.2348 60.6048 16.1421L63.4819 24.7633C63.2035 24.856 62.9251 24.9488 62.6467 25.0415L59.6767 16.4202Z" fill="#22366A"/>
<path d="M65.3382 14.7516C65.6167 14.6589 65.9879 14.5662 66.2663 14.4735L68.401 23.3728C68.1226 23.4655 67.8441 23.4655 67.5657 23.5582L65.3382 14.7516Z" fill="#22366A"/>
<path d="M71.0924 13.5465C71.3708 13.4538 71.7421 13.4538 72.0205 13.3611L73.4126 22.3531C73.1342 22.3531 72.8558 22.4458 72.5774 22.4458L71.0924 13.5465Z" fill="#22366A"/>
<path d="M151.187 72.4117L142.092 73.7095C142.092 73.4314 141.999 73.1533 141.999 72.8752L151.002 71.4847C151.095 71.7628 151.187 72.0409 151.187 72.4117Z" fill="#22366A"/>
<path d="M150.166 66.6642L141.257 68.7036C141.164 68.4255 141.164 68.1474 141.071 67.8693L149.981 65.7372C149.981 66.0153 150.074 66.2934 150.166 66.6642Z" fill="#22366A"/>
<path d="M139.864 63.7905C139.772 63.5124 139.679 63.2343 139.586 62.9562L148.217 60.0825C148.31 60.3606 148.403 60.7314 148.496 61.0095L139.864 63.7905Z" fill="#22366A"/>
<path d="M146.547 55.4474L138.101 58.9701C138.008 58.692 137.915 58.4139 137.73 58.2285L146.083 54.6131C146.361 54.8912 146.454 55.1693 146.547 55.4474Z" fill="#22366A"/>
<path d="M144.134 50.1634L136.059 54.335C135.967 54.0569 135.781 53.8715 135.688 53.5934L143.763 49.2364C143.763 49.6072 143.948 49.8853 144.134 50.1634Z" fill="#22366A"/>
<path d="M141.164 45.0649L133.461 49.978C133.275 49.6999 133.182 49.5145 132.997 49.2364L140.607 44.2306C140.793 44.5087 140.978 44.7868 141.164 45.0649Z" fill="#22366A"/>
<path d="M137.823 40.2444L130.491 45.7138C130.305 45.5284 130.119 45.2502 129.934 45.0648L137.173 39.4101C137.451 39.6882 137.637 39.9663 137.823 40.2444Z" fill="#22366A"/>
<path d="M134.11 35.7021L127.335 41.8204C127.15 41.635 126.964 41.3569 126.778 41.1715L133.461 34.9605C133.646 35.2386 133.832 35.5167 134.11 35.7021Z" fill="#22366A"/>
<path d="M130.027 31.5305L123.716 38.205C123.53 38.0196 123.344 37.8342 123.066 37.6488L129.284 30.8816C129.47 31.067 129.748 31.3451 130.027 31.5305Z" fill="#22366A"/>
<path d="M125.572 27.7298L119.91 34.8678C119.725 34.6824 119.446 34.497 119.261 34.3116L124.829 27.0809C125.015 27.2663 125.293 27.4517 125.572 27.7298Z" fill="#22366A"/>
<path d="M120.839 24.2071L115.734 31.8086C115.456 31.6232 115.27 31.5305 114.992 31.3451L119.91 23.6509C120.282 23.929 120.56 24.0217 120.839 24.2071Z" fill="#22366A"/>
<path d="M115.827 21.2407L111.372 29.213C111.093 29.1203 110.908 28.9349 110.629 28.8422L114.899 20.7772C115.27 20.8699 115.548 21.0553 115.827 21.2407Z" fill="#22366A"/>
<path d="M110.537 18.6451L106.824 26.9882C106.546 26.8955 106.267 26.8028 106.082 26.6174L109.701 18.1816C109.98 18.367 110.258 18.4597 110.537 18.6451Z" fill="#22366A"/>
<path d="M105.154 16.4202L102.184 25.0415C101.905 24.9488 101.627 24.856 101.348 24.7633L104.225 16.1421C104.504 16.2348 104.782 16.3275 105.154 16.4202Z" fill="#22366A"/>
<path d="M99.4923 14.7516L97.2648 23.5582C96.9864 23.4655 96.708 23.3728 96.4295 23.3728L98.5642 14.4735C98.8426 14.5662 99.2139 14.6589 99.4923 14.7516Z" fill="#22366A"/>
<path d="M93.738 13.5464L92.253 22.5385C91.9746 22.4458 91.6961 22.4458 91.4177 22.4458L92.8099 13.4538C93.0883 13.4538 93.4595 13.4537 93.738 13.5464Z" fill="#22366A"/>
<path d="M13.6431 92.4351L22.7384 91.1373C22.7384 91.4154 22.8312 91.6935 22.8312 91.9716L13.8287 93.3622C13.7359 92.9914 13.6431 92.7132 13.6431 92.4351Z" fill="#22366A"/>
<path d="M14.664 98.1827L23.5738 96.1433C23.6666 96.4214 23.6666 96.6995 23.7594 96.9776L14.8496 99.1097C14.8496 98.8316 14.7568 98.4608 14.664 98.1827Z" fill="#22366A"/>
<path d="M24.9658 101.056C25.0586 101.335 25.1514 101.613 25.2443 101.891L16.6129 104.764C16.5201 104.486 16.4273 104.116 16.3345 103.837L24.9658 101.056Z" fill="#22366A"/>
<path d="M18.2836 109.307L26.7293 105.784C26.8221 106.062 26.9149 106.34 27.1006 106.526L18.7477 110.141C18.4693 109.956 18.3764 109.585 18.2836 109.307Z" fill="#22366A"/>
<path d="M20.7894 114.683L28.8639 110.512C28.9567 110.79 29.1423 110.975 29.2351 111.254L21.1606 115.61C21.0678 115.24 20.8822 114.962 20.7894 114.683Z" fill="#22366A"/>
<path d="M23.6666 119.689L31.3698 114.776C31.5554 115.054 31.6482 115.24 31.8338 115.518L24.1306 120.524C24.0378 120.246 23.8522 119.967 23.6666 119.689Z" fill="#22366A"/>
<path d="M27.0077 124.51L34.3397 119.04C34.5253 119.226 34.7109 119.504 34.8965 119.689L27.6574 125.344C27.3789 125.066 27.1933 124.788 27.0077 124.51Z" fill="#22366A"/>
<path d="M30.7201 129.052L37.4953 122.934C37.6809 123.119 37.8665 123.397 38.0521 123.583L31.3698 129.794C31.1842 129.516 30.9986 129.33 30.7201 129.052Z" fill="#22366A"/>
<path d="M34.8038 133.224L41.1148 126.549C41.3004 126.735 41.4861 126.92 41.7645 127.105L35.5462 133.873C35.3606 133.687 35.0822 133.502 34.8038 133.224Z" fill="#22366A"/>
<path d="M39.2586 137.117L44.92 129.979C45.1056 130.165 45.3841 130.35 45.5697 130.535L40.0011 137.766C39.8155 137.488 39.5371 137.303 39.2586 137.117Z" fill="#22366A"/>
<path d="M43.9919 140.547L49.0964 132.946C49.3748 133.131 49.5605 133.224 49.8389 133.409L44.92 141.103C44.5487 140.918 44.2703 140.733 43.9919 140.547Z" fill="#22366A"/>
<path d="M49.0037 143.606L53.4586 135.634C53.737 135.727 53.9226 135.912 54.201 136.005L49.9318 144.07C49.5605 143.884 49.2821 143.699 49.0037 143.606Z" fill="#22366A"/>
<path d="M54.2938 146.202L58.0062 137.859C58.2846 137.951 58.563 138.044 58.7487 138.23L55.1291 146.665C54.8507 146.48 54.5722 146.295 54.2938 146.202Z" fill="#22366A"/>
<path d="M59.6767 148.334L62.6467 139.713C62.9251 139.805 63.2035 139.898 63.4819 139.991L60.6048 148.612C60.3264 148.519 60.048 148.427 59.6767 148.334Z" fill="#22366A"/>
<path d="M65.3382 150.003L67.5657 141.196C67.8441 141.289 68.1226 141.381 68.401 141.381L66.2663 150.281C65.9879 150.188 65.6167 150.095 65.3382 150.003Z" fill="#22366A"/>
<path d="M71.0924 151.208L72.5774 142.216C72.8558 142.308 73.1342 142.308 73.4126 142.308L72.0205 151.3C71.7421 151.3 71.3708 151.3 71.0924 151.208Z" fill="#22366A"/>
<path d="M151.187 92.4351C151.187 92.7132 151.095 93.0841 151.002 93.3622L141.999 91.9716C141.999 91.6935 142.092 91.4154 142.092 91.1373L151.187 92.4351Z" fill="#22366A"/>
<path d="M150.166 98.1827C150.074 98.4608 149.981 98.8316 149.981 99.1097L141.071 96.9776C141.164 96.6995 141.164 96.4214 141.257 96.1433L150.166 98.1827Z" fill="#22366A"/>
<path d="M139.864 101.056L148.589 103.837C148.496 104.116 148.403 104.486 148.31 104.764L139.679 101.891C139.679 101.613 139.772 101.335 139.864 101.056Z" fill="#22366A"/>
<path d="M146.547 109.307C146.454 109.585 146.268 109.956 146.176 110.234L137.823 106.618C137.915 106.34 138.008 106.062 138.194 105.877L146.547 109.307Z" fill="#22366A"/>
<path d="M144.134 114.683C143.948 114.962 143.855 115.24 143.67 115.518L135.595 111.161C135.688 110.883 135.874 110.697 135.966 110.419L144.134 114.683Z" fill="#22366A"/>
<path d="M141.164 119.689C140.978 119.967 140.793 120.246 140.607 120.524L132.997 115.518C133.182 115.24 133.275 115.054 133.461 114.776L141.164 119.689Z" fill="#22366A"/>
<path d="M137.823 124.51C137.637 124.788 137.451 125.066 137.266 125.251L130.027 119.597C130.212 119.411 130.398 119.133 130.584 118.948L137.823 124.51Z" fill="#22366A"/>
<path d="M134.11 129.052C133.925 129.33 133.646 129.516 133.461 129.794L126.778 123.583C126.964 123.397 127.15 123.212 127.335 122.934L134.11 129.052Z" fill="#22366A"/>
<path d="M130.027 133.224C129.748 133.409 129.563 133.687 129.284 133.873L123.066 127.105C123.252 126.92 123.437 126.735 123.716 126.549L130.027 133.224Z" fill="#22366A"/>
<path d="M99.4923 150.003C99.2139 150.095 98.8426 150.188 98.5642 150.281L96.4295 141.381C96.708 141.289 96.9864 141.289 97.2648 141.196L99.4923 150.003Z" fill="#22366A"/>
<path d="M93.738 151.208C93.4595 151.3 93.0883 151.3 92.8099 151.393L91.4177 142.401C91.6961 142.401 91.9746 142.308 92.253 142.308L93.738 151.208Z" fill="#22366A"/>
<path d="M125.572 137.21C125.293 137.395 125.015 137.581 124.829 137.766L119.261 130.535C119.446 130.35 119.725 130.165 119.91 129.979L125.572 137.21Z" fill="#22366A"/>
<path d="M193.416 162.425C187.383 168.265 179.309 171.787 170.213 171.787C161.025 171.787 152.765 168.079 146.64 162.054C141.813 157.233 138.472 151.022 137.359 143.977C139.493 142.03 141.628 139.991 143.577 137.859L143.67 137.766C156.941 123.119 165.016 103.745 165.016 82.4234C165.016 36.9072 128.078 0.012085 82.5079 0.012085C36.9383 0.012085 0 36.9072 0 82.4234C0 127.94 36.9383 164.835 82.5079 164.835C90.6752 164.835 98.4713 163.63 105.896 161.498L101.441 151.208C97.6359 152.227 93.8307 152.969 89.8399 153.34L86.5916 147.778L82.5079 140.732L78.4243 147.778L75.176 153.34C58.3774 151.671 43.3422 144.162 32.0194 132.853C20.6966 121.543 13.179 106.526 11.5084 89.8395L17.2626 86.5023L24.3162 82.4234L17.2626 78.3446L11.5084 75.0073C13.2718 58.2284 20.7894 43.2108 32.0194 31.994C43.3422 20.6844 58.3774 13.1756 75.176 11.507L78.4243 17.0691L82.5079 24.1144L86.5916 17.0691L89.8399 11.507C106.639 13.1756 121.674 20.6844 132.997 31.994C144.319 43.3035 151.837 58.2284 153.507 75.0073L147.753 78.3446L140.7 82.4234L147.753 86.5023L153.507 89.8395C151.744 106.618 144.227 121.543 132.997 132.853C131.512 134.336 128.078 137.21 128.078 137.21C126.221 139.991 126.685 143.699 126.685 143.699C129.191 165.484 147.753 182.448 170.306 182.448C182.093 182.448 192.766 177.813 200.655 170.304L193.416 162.425Z" fill="url(#paint0_linear_1217_599)"/>
<path d="M82.4151 82.4235L74.4335 86.8732L64.5957 59.619L54.7578 32.3649L72.5773 55.1694L90.3968 77.9739L82.4151 82.4235Z" fill="#15AAB8"/>
<path d="M171.977 94.66C169.285 94.66 166.594 94.9381 163.902 95.4016C163.252 99.3878 162.324 103.281 161.211 107.082C164.645 105.877 168.264 105.321 172.069 105.321C181.258 105.321 189.518 109.029 195.643 115.054C200.469 119.875 203.718 126.086 204.924 133.038H147.753C146.454 134.707 145.155 136.283 143.762 137.859L143.67 137.951C141.721 140.084 139.679 142.03 137.637 143.977H216.061V138.6C215.876 114.313 196.293 94.66 171.977 94.66Z" fill="#15AAB8"/>
<defs>
<linearGradient id="paint0_linear_1217_599" x1="14.8793" y1="35.1579" x2="200.351" y2="170.716" gradientUnits="userSpaceOnUse">
<stop offset="0.718868" stop-color="#22366A"/>
<stop offset="0.9" stop-color="#15AAB8"/>
</linearGradient>
</defs>
</svg>
